# xmcd
#
# Track frame offsets: 
#        150
#        12257
#        34197
#        51588
#        67652
#        78248
#        93524
#        106506
#        125402
#        141311
#        151940
#        166137
#        185683
#        194862
#        209361
#        225380
#        238747
#        254485
#        273648
#        285171
#
# Disc length: 3941 seconds
#
# Revision: 0
# Processed by: cddbd v1.5.2PL0 Copyright (c) Steve Scherf et al.
# Submitted via: ExactAudioCopy v0.99pb4
#
DISCID=170f6314
DTITLE=Various Artist - Radio 2 - De Topcollectie - Vlaamse klassiekers - CD 
DTITLE=2
DYEAR=2014
DGENRE=Chanson
TTITLE0=Clouseau - Anne
TTITLE1=Willem Vermandere - Blanche En Zijn Peird
TTITLE2=Guido Belcanto - Op Het Zeildoek Van De Botsauto's
TTITLE3=Garry Hagger - Het Allermooiste
TTITLE4=Big Bill - Ene Mee Hesp
TTITLE5=Hannelore Bedert - Helemaal
TTITLE6=Bart Kaëll - De "Marie-Louise"
TTITLE7=Ivan Heylen - De Wilde Boerendochtere
TTITLE8=Arbeid Adelt! - Lekker Westers
TTITLE9=Micha Marah - Tamboerke
TTITLE10=Stampen En Dagen - Marie Claire
TTITLE11=Hugo Raspoet - Helena
TTITLE12=Della Bosiers - Fleur De Buda
TTITLE13=La Esterella - Voor Een Kusje Van Jou
TTITLE14=Toast - Ik Schreeuw Het Van De Daken
TTITLE15=Jackobond - Groot Feest
TTITLE16=Erik Van Neygen and Sanne - Veel Te Mooi
TTITLE17=John Terra - De Dag Dat 't Zonlicht Niet Meer Scheen
TTITLE18=Lamp, Lazarus and Kris - De Peulschil
TTITLE19=De Mens - Irene
EXTD=
EXTT0=
EXTT1=
EXTT2=
EXTT3=
EXTT4=
EXTT5=
EXTT6=
EXTT7=
EXTT8=
EXTT9=
EXTT10=
EXTT11=
EXTT12=
EXTT13=
EXTT14=
EXTT15=
EXTT16=
EXTT17=
EXTT18=
EXTT19=
PLAYORDER=
